<svg version="1.1" id="Layer_1" xmlns="http://www.w3.org/2000/svg" xmlns:xlink="http://www.w3.org/1999/xlink" x="0px" y="0px"
     viewBox="0 0 568.7 1400.8" style="enable-background:new 0 0 568.7 1400.8;" xml:space="preserve">
    <style type="text/css">
            .path{fill:none;stroke:#FFFFFF;stroke-width:5;stroke-linecap:round;stroke-miterlimit:10;}
    </style>
    <path class="path1 path" id="path1" d="M310.5,48.6c0,0,6.5-0.1,17,0.4"/>
    <path class="path2 path" id="path2" d="M427.6,66.8c36.4,13.1,67.2,35.8,67.2,74.7c0,38.8-33.6,60.6-49.6,60.6c-55.5,0-55.5-32.7-105.5-32.7 c-40.9,0-67.2,30.2-76.3,58.1"/>
    <path class="path3 path" id="path3" d="M259.7,262.7c1.3,25.1,12,72.1,81.1,72.1c21.3,0,46.1-2.5,46.1-25.2c0-22.2-17.4-19.3-20.1-19.3 c-3.5,0-27.2,0.2-27.2,54.3c0,35.2,16.7,56.9,35.8,77.5"/>
    <path class="path4 path" id="path4" d="M414.5,468.6c9.8,16,16.5,35.1,16.5,60.4c0,21.5-11.1,41.4-26.8,55.8"/>
    <path class="path5 path" id="path5" d="M324,605c-46.2-8.1-59.4-34.7-128.8-34.7c-78.3,0-116.9,72.2-116.9,121.3"/>
    <path class="path6 path" id="path6" d="M83.9,733.9c0,0,20.8,93,119.8,93s206-68.1,206-119.3c-0.3-21.3-23-32.3-38.8-32.3 s-29.8,14.8-29.8,33.7c0,18.9,17.2,43.5,41.6,74.1c24.3,30.6,65.1,74.7,77.4,110.3"/>
    <path class="path7 path" id="path7" d="M468.4,935.6c0,115.6-163.8,87.2-163.8,211.8c0,28.5,10.6,49.1,24.4,68.3"/>
    <path class="path8 path" id="path8" d="M360.2,1256.1c17.1,23.7,31.4,51.5,31.4,93.7"/>
</svg>

