<svg version="1.1" id="Layer_1" xmlns="http://www.w3.org/2000/svg" xmlns:xlink="http://www.w3.org/1999/xlink" x="0px" y="0px"
     viewBox="0 0 568.7 1400.8" style="enable-background:new 0 0 568.7 1400.8;" xml:space="preserve">
    <style type="text/css">
        .path{fill-rule:evenodd;clip-rule:evenodd;fill:none;stroke:#FFFFFF ;stroke-width:5;stroke-linecap:round;stroke-miterlimit:10;}
    </style>
    <path class="path1 path" d="M310.5,48.6c0,0,6.5-0.1,17,0.4"/>
    <path class="path2 path" d="M427.6,66.8c36.4,13.1,67.2,35.8,67.2,74.7c0,38.8-33.6,60.6-49.6,60.6c-55.5,0-55.5-32.7-105.5-32.7
          c-40.9,0-67.2,30.2-76.3,58.1"/>
    <path class="path3 path" d="M259.7,262.7c1.3,25.1,12,72.1,81.1,72.1c21.3,0,46.1-2.5,46.1-25.2c0-22.2-17.4-19.3-20.1-19.3
          c-3.5,0-27.2,0.2-27.2,54.3c0,35.2,16.7,56.9,35.8,77.5"/>
    <path class="path4 path" d="M414.5,468.6c9.8,16,16.5,35.1,16.5,60.4c0,21.5-11.1,41.4-26.8,55.8"/>
    <path class="path5 path" d="M324,605c-46.2-8.1-59.4-34.7-128.8-34.7c-78.3,0-116.9,72.2-116.9,121.3"/>
    <path class="path6 path" d="M84.9,735.6C100.6,791,144.8,827,204.2,827c82.1,0,205.5-60.4,205.5-119.7"/>
    <path class="path7 path" d="M409.7,707.3 c0-14.5-14.5-31.5-35-31.5c-24.9,0-32.7,17.3-32.7,33.1"/>
    <path class="path8 path" d="M342,708.9c0,47.3,89.1,113.2,117.7,185.1"/>
    <path class="path9 path" d="M468.4,935.6c0,115.6-163.8,87.2-163.8,211.8c0,28.5,10.6,49.1,24.4,68.3"/>
    <path class="path10 path" d="M360.2,1256.1c17.1,23.7,31.4,51.5,31.4,93.7"/>
</svg>